<svg width="24" height="24" viewBox="0 0 24 24" fill="none" xmlns="http://www.w3.org/2000/svg">
<path d="M16.3637 8.5085H7.63672L8.49272 18.7805C8.50222 18.8935 8.59672 18.9805 8.70972 18.9805H15.2902C15.3449 18.9804 15.3976 18.9599 15.4379 18.9228C15.4782 18.8858 15.5031 18.835 15.5077 18.7805L16.3637 8.5085Z" fill="#8E6134"/>
<path d="M12.0002 8.5085H7.63672L8.49272 18.7805C8.50222 18.894 8.59672 18.9805 8.70972 18.9805H12.0002V8.5085Z" fill="#A97A45"/>
<path d="M17.2367 8.072C17.2367 8.313 17.0417 8.5085 16.8002 8.5085H7.20017C7.0844 8.5085 6.97338 8.46252 6.89152 8.38066C6.80966 8.2988 6.76367 8.18777 6.76367 8.072V7.2C6.76367 6.959 6.95867 6.7635 7.20017 6.7635H16.8002C17.0412 6.7635 17.2367 6.9585 17.2367 7.2V8.072Z" fill="#E2E4E5"/>
<path d="M7.24821 11.606C7.24222 11.5454 7.24897 11.4841 7.26804 11.4263C7.28711 11.3684 7.31808 11.3151 7.35895 11.2699C7.39982 11.2247 7.44969 11.1886 7.50536 11.1638C7.56103 11.139 7.62127 11.1261 7.68221 11.126H16.3182C16.3792 11.126 16.4395 11.1389 16.4952 11.1636C16.5509 11.1884 16.6008 11.2245 16.6417 11.2698C16.6825 11.315 16.7135 11.3683 16.7326 11.4262C16.7516 11.4841 16.7583 11.5453 16.7522 11.606L16.4032 15.097C16.3924 15.2046 16.3421 15.3044 16.2619 15.3771C16.1817 15.4497 16.0774 15.4899 15.9692 15.49H8.03121C7.92295 15.49 7.81853 15.4499 7.73824 15.3772C7.65794 15.3046 7.6075 15.2047 7.59671 15.097L7.24821 11.606ZM16.3637 6.763L15.7322 5.5C15.6595 5.3552 15.5481 5.23343 15.4103 5.14823C15.2725 5.06304 15.1137 5.01778 14.9517 5.0175H9.04871C8.71771 5.0175 8.41571 5.2045 8.26771 5.5L7.63621 6.763H16.3637Z" fill="#F0F1F1"/>
<path d="M11.4214 13.7135C11.4 13.7299 11.3733 13.7377 11.3464 13.7356C11.3196 13.7334 11.2945 13.7214 11.276 13.7018C11.2575 13.6823 11.2468 13.6565 11.2462 13.6296C11.2455 13.6027 11.2549 13.5764 11.2724 13.556C11.6599 13.0935 12.6694 12.5375 13.2724 12.231C12.8034 11.774 11.9614 11.688 11.2024 12.0695C10.2934 12.527 9.84989 13.481 10.2124 14.201C10.5744 14.9205 11.6049 15.133 12.5139 14.6755C13.4224 14.2185 13.8659 13.2655 13.5054 12.5455C13.0469 12.7605 12.0354 13.2555 11.4214 13.7135Z" fill="#692E19"/>
<path d="M12.0002 5.0175H9.04872C8.71822 5.0175 8.41572 5.2045 8.26772 5.5L7.63672 6.763H12.0002V5.0175Z" fill="white"/>
<path d="M12.0002 6.763H7.20017C7.0844 6.763 6.97338 6.80899 6.89152 6.89085C6.80966 6.97271 6.76367 7.08373 6.76367 7.1995V8.072C6.76367 8.313 6.95917 8.5085 7.20017 8.5085H12.0002V6.763Z" fill="#F0F1F1"/>
</svg>
